<svg width="16" height="22" viewBox="0 0 16 22" fill="none" xmlns="http://www.w3.org/2000/svg">
<path d="M0.948153 14V3.09091H3.25462V12.0984H7.93146V14H0.948153Z" fill="black"/>
<path d="M12.8661 10.2283C12.8235 9.79865 12.6406 9.46484 12.3175 9.22692C11.9943 8.98899 11.5558 8.87003 11.0018 8.87003C10.6254 8.87003 10.3075 8.9233 10.0483 9.02983C9.78906 9.13281 9.5902 9.27663 9.4517 9.46129C9.31676 9.64595 9.24929 9.85547 9.24929 10.0898C9.24219 10.2852 9.28303 10.4556 9.3718 10.6012C9.46413 10.7468 9.5902 10.8729 9.75 10.9794C9.9098 11.0824 10.0945 11.1729 10.304 11.2511C10.5135 11.3256 10.7372 11.3896 10.9751 11.4428L11.9553 11.6772C12.4311 11.7837 12.8679 11.9258 13.2656 12.1033C13.6634 12.2809 14.0078 12.4993 14.299 12.7585C14.5902 13.0178 14.8157 13.3232 14.9755 13.6747C15.1388 14.0263 15.2223 14.4293 15.2259 14.8839C15.2223 15.5515 15.0518 16.1303 14.7145 16.6204C14.3807 17.1069 13.8977 17.4851 13.2656 17.755C12.6371 18.0213 11.8789 18.1545 10.9911 18.1545C10.1104 18.1545 9.34339 18.0195 8.68999 17.7496C8.04013 17.4798 7.53232 17.0803 7.16655 16.5511C6.80433 16.0185 6.61435 15.3597 6.59659 14.5749H8.82848C8.85334 14.9407 8.9581 15.2461 9.14276 15.4911C9.33097 15.7326 9.58132 15.9155 9.89382 16.0398C10.2099 16.1605 10.5668 16.2209 10.9645 16.2209C11.3551 16.2209 11.6942 16.1641 11.9819 16.0504C12.2731 15.9368 12.4986 15.7788 12.6584 15.5763C12.8182 15.3739 12.8981 15.1413 12.8981 14.8786C12.8981 14.6335 12.8253 14.4276 12.6797 14.2607C12.5376 14.0937 12.3281 13.9517 12.0511 13.8345C11.7777 13.7173 11.4421 13.6108 11.0444 13.5149L9.85653 13.2166C8.93679 12.9929 8.21058 12.6431 7.67791 12.1673C7.14524 11.6914 6.88068 11.0504 6.88423 10.2443C6.88068 9.58381 7.05646 9.00675 7.41158 8.51314C7.77024 8.01953 8.26207 7.63423 8.88707 7.35724C9.51207 7.08026 10.2223 6.94176 11.0178 6.94176C11.8274 6.94176 12.5341 7.08026 13.1378 7.35724C13.745 7.63423 14.2173 8.01953 14.5547 8.51314C14.892 9.00675 15.0661 9.57848 15.0767 10.2283H12.8661Z" fill="#BEBEBE"/>
</svg>
